<?xml version="1.0" standalone="no"?>
<!DOCTYPE svg PUBLIC "-//W3C//DTD SVG 20010904//EN"
 "http://www.w3.org/TR/2001/REC-SVG-20010904/DTD/svg10.dtd">
<svg version="1.0" xmlns="http://www.w3.org/2000/svg"
 width="1920.000000pt" height="1920.000000pt" viewBox="0 0 1920.000000 1920.000000"
 preserveAspectRatio="xMidYMid meet">

<g transform="translate(0.000000,1920.000000) scale(0.100000,-0.100000)"
fill="#000000" stroke="none">
<path d="M12116 11891 c-4 -6 -9 -41 -13 -78 -3 -37 -10 -73 -14 -79 -5 -6
-11 -63 -14 -128 -4 -99 -2 -121 12 -144 23 -35 94 -107 112 -113 8 -3 24 -34
36 -70 21 -62 21 -70 -3 -108 -1 -3 -11 5 -22 17 -12 12 -25 22 -30 22 -5 0
-24 16 -41 35 -18 19 -38 35 -44 35 -13 0 -45 84 -45 119 0 11 -4 22 -9 25 -4
3 -10 -42 -13 -99 -4 -88 -8 -109 -25 -128 -14 -15 -22 -41 -26 -85 -3 -37
-12 -71 -21 -81 -10 -11 -16 -36 -16 -65 0 -38 -5 -52 -27 -74 -21 -21 -29
-41 -34 -85 -4 -32 -14 -66 -23 -76 -9 -10 -16 -32 -16 -50 0 -24 -6 -34 -24
-41 -20 -7 -24 -17 -28 -64 -3 -41 -11 -62 -26 -77 -12 -11 -22 -26 -22 -33 0
-7 -9 -25 -20 -39 -11 -14 -20 -37 -20 -51 0 -15 -12 -39 -30 -58 -16 -17 -30
-39 -30 -50 0 -10 -7 -21 -15 -24 -9 -4 -15 -19 -15 -38 0 -26 -5 -34 -30 -43
-20 -8 -30 -18 -30 -32 0 -11 -22 -46 -50 -76 -27 -30 -50 -65 -50 -76 0 -11
-14 -34 -31 -51 -30 -31 -27 -47 8 -48 7 0 15 -12 19 -27 3 -16 7 -33 9 -39 2
-6 32 -14 67 -18 78 -8 145 -32 180 -64 20 -18 40 -25 71 -27 33 -1 53 -9 83
-33 21 -18 42 -32 47 -32 5 0 15 -7 24 -16 10 -9 25 -13 42 -10 31 7 47 -2 53
-29 3 -16 11 -19 39 -17 30 2 38 -2 47 -23 8 -17 20 -25 36 -25 14 0 31 -8 38
-19 7 -10 27 -25 44 -34 17 -9 34 -23 37 -32 4 -8 15 -15 26 -15 11 0 23 -9
26 -21 5 -16 13 -20 32 -16 15 3 27 -1 30 -8 2 -8 20 -21 40 -30 19 -10 38
-25 40 -35 3 -10 18 -24 33 -30 16 -7 31 -18 34 -26 3 -8 19 -20 35 -25 17 -6
33 -19 36 -29 3 -10 12 -21 20 -24 8 -3 15 -12 15 -20 0 -9 11 -18 25 -22 13
-3 27 -15 30 -25 4 -10 17 -22 31 -25 13 -3 24 -12 24 -19 0 -8 9 -16 19 -20
10 -3 21 -15 24 -25 5 -21 31 -27 42 -10 14 23 26 8 19 -25 -6 -34 -5 -35 25
-35 20 0 31 -5 31 -14 0 -24 34 -75 52 -80 10 -2 18 -13 18 -25 0 -13 10 -26
25 -33 14 -6 25 -17 25 -25 0 -7 11 -13 24 -13 19 0 29 -11 49 -52 13 -29 27
-61 30 -70 4 -10 13 -18 21 -18 8 0 16 -10 18 -22 3 -26 36 -37 50 -16 5 8 7
0 3 -22 -5 -28 -1 -42 19 -69 15 -19 26 -43 26 -53 0 -11 7 -18 19 -18 21 0
56 -51 69 -103 6 -22 15 -33 30 -35 15 -2 22 -10 22 -26 0 -22 30 -60 30 -40
0 5 5 1 11 -9 5 -9 7 -21 4 -27 -3 -5 -3 -21 1 -35 6 -23 10 -25 35 -20 l29 7
-6 -61 c-5 -47 -4 -61 6 -61 8 0 24 -10 36 -21 21 -20 22 -23 8 -44 -14 -21
-13 -24 7 -38 16 -12 23 -29 27 -66 3 -39 10 -54 28 -66 13 -8 24 -23 24 -32
0 -9 9 -35 20 -58 12 -25 21 -67 23 -101 2 -53 5 -60 30 -72 17 -9 27 -21 27
-36 0 -12 6 -28 13 -35 10 -11 9 -12 -2 -6 -15 9 -14 -7 13 -135 9 -41 16
-104 16 -138 0 -54 3 -67 23 -82 l22 -18 3 -519 c2 -468 1 -524 -15 -580 -10
-35 -21 -63 -25 -63 -5 0 -8 -20 -8 -44 0 -54 -17 -148 -29 -155 -4 -4 -11
-32 -14 -65 -4 -39 -14 -70 -31 -95 -16 -23 -26 -51 -26 -72 0 -19 -8 -51 -19
-72 -10 -20 -22 -53 -25 -72 -4 -20 -13 -35 -21 -35 -20 0 -27 -15 -30 -68 -2
-26 -4 -50 -4 -54 -1 -5 -8 -8 -16 -8 -19 0 -31 -48 -17 -70 13 -22 6 -30 -24
-30 -18 0 -24 -7 -30 -35 -3 -20 -15 -40 -25 -45 -10 -6 -21 -26 -25 -46 -4
-20 -12 -38 -20 -41 -7 -2 -16 -18 -19 -34 -4 -17 -17 -34 -33 -41 -15 -8 -28
-23 -30 -36 -2 -13 -10 -26 -18 -29 -8 -3 -14 -11 -14 -18 0 -8 -11 -26 -24
-42 -14 -16 -28 -41 -31 -56 -4 -15 -14 -27 -21 -27 -8 0 -19 -11 -24 -25 -5
-14 -16 -25 -25 -25 -8 0 -15 -9 -15 -20 0 -11 -21 -41 -46 -67 -25 -27 -50
-58 -55 -70 -5 -13 -17 -23 -28 -23 -12 0 -21 -9 -25 -25 -4 -14 -12 -25 -19
-25 -6 0 -25 -17 -42 -37 -31 -37 -42 -48 -187 -188 -49 -47 -88 -89 -88 -94
0 -5 -11 -12 -25 -15 -14 -4 -25 -12 -25 -19 0 -21 -45 -55 -88 -69 -28 -9
-42 -19 -42 -30 0 -10 -10 -20 -25 -24 -14 -3 -25 -13 -25 -20 0 -8 -8 -18
-17 -21 -10 -4 -31 -17 -46 -30 -16 -13 -35 -23 -42 -23 -8 0 -19 -8 -24 -19
-6 -10 -22 -22 -35 -25 -14 -3 -30 -15 -36 -26 -7 -13 -21 -20 -40 -20 -19 0
-38 -9 -51 -24 -12 -13 -33 -27 -47 -31 -14 -3 -31 -12 -36 -19 -6 -7 -30 -18
-53 -25 -39 -11 -42 -13 -33 -36 6 -16 6 -25 0 -25 -6 0 -10 5 -10 11 0 17
-83 -1 -97 -21 -7 -10 -28 -21 -48 -24 -19 -4 -39 -15 -45 -25 -6 -13 -25 -20
-60 -23 -33 -3 -57 -12 -70 -25 -10 -11 -34 -23 -54 -27 -19 -4 -48 -13 -63
-21 -15 -8 -42 -15 -59 -15 -62 0 -124 -13 -124 -25 0 -37 -63 -52 -308 -74
-77 -7 -106 -13 -115 -26 -22 -29 -123 -35 -535 -30 -385 3 -405 5 -447 25
-30 15 -76 24 -152 30 -60 5 -127 15 -149 23 -21 9 -61 18 -87 21 -32 4 -54
13 -66 27 -13 17 -31 22 -101 26 -58 4 -95 12 -116 24 -17 11 -41 19 -52 19
-12 0 -27 9 -35 21 -10 13 -30 23 -56 26 -25 3 -47 14 -55 24 -7 11 -36 26
-65 34 -28 9 -51 20 -51 25 0 6 -13 10 -29 10 -28 0 -61 22 -61 40 0 4 -17 11
-37 15 -20 4 -48 15 -61 26 -14 10 -30 19 -36 19 -6 0 -18 9 -26 20 -8 11 -23
20 -33 20 -10 0 -28 11 -40 24 -13 14 -35 28 -51 32 -15 3 -33 15 -39 25 -7
11 -17 19 -23 19 -10 0 -42 24 -87 68 -10 9 -24 17 -30 18 -7 0 -18 2 -25 2
-7 1 -17 14 -22 28 -6 14 -19 28 -30 31 -11 3 -22 13 -25 23 -3 11 -16 20 -28
22 -14 2 -22 10 -22 23 0 13 -8 21 -24 23 -13 2 -26 12 -28 23 -3 11 -14 19
-25 19 -11 0 -22 8 -25 19 -3 11 -13 21 -24 24 -10 3 -23 16 -28 29 -5 12 -34
39 -65 58 -30 19 -58 43 -61 53 -4 9 -20 24 -36 32 -20 11 -29 23 -29 40 0 14
-5 25 -11 25 -5 0 -15 13 -20 30 -7 19 -18 30 -30 30 -10 0 -19 6 -19 14 0 8
-8 21 -18 28 -10 7 -21 21 -25 31 -4 11 -16 21 -27 24 -11 3 -35 29 -55 58
-19 29 -41 55 -50 59 -8 3 -15 15 -15 26 0 12 -11 31 -25 44 -14 13 -25 28
-25 33 0 6 -7 16 -15 23 -8 7 -19 29 -25 50 -6 24 -19 41 -35 48 -14 6 -25 17
-25 23 0 7 -7 20 -16 30 -9 10 -19 33 -23 51 -4 20 -15 37 -28 43 -12 5 -25
20 -28 34 -3 13 -15 36 -26 49 -10 14 -19 36 -19 50 0 14 -11 35 -25 48 -19
18 -25 33 -25 68 0 36 -4 46 -20 51 -12 4 -20 15 -20 29 0 13 -10 36 -22 51
-16 21 -23 46 -26 91 -4 53 -8 66 -28 79 -17 11 -24 25 -24 47 0 17 -9 50 -19
72 -12 25 -21 70 -23 115 -3 57 -8 76 -22 87 -14 10 -23 42 -36 131 -10 65
-23 134 -29 153 -6 19 -11 74 -11 123 0 106 -11 135 -79 202 -28 28 -54 58
-57 68 -3 9 -9 17 -14 17 -5 0 -12 15 -15 33 -4 17 -19 51 -32 75 -23 38 -25
51 -21 116 l5 73 -39 37 c-21 20 -38 41 -38 46 0 5 -11 12 -24 16 -13 3 -34
17 -47 30 -12 13 -28 24 -35 24 -7 0 -15 9 -19 19 -3 11 -19 24 -35 30 -17 5
-30 15 -30 20 0 6 -7 11 -15 11 -8 0 -22 11 -31 25 -9 14 -22 25 -29 25 -20 0
-133 98 -147 128 -8 15 -23 28 -36 30 -12 2 -22 10 -22 18 0 8 -7 17 -16 21
-8 3 -20 16 -25 29 -4 13 -16 24 -26 24 -10 0 -31 14 -47 30 -16 17 -32 30
-36 30 -4 0 -71 63 -148 140 -78 77 -144 140 -148 140 -8 0 -64 54 -64 62 0 4
-34 42 -75 83 -41 42 -75 81 -75 86 0 5 -6 9 -14 9 -8 0 -20 16 -27 35 -7 19
-19 35 -26 35 -8 0 -18 11 -23 24 -5 14 -18 30 -30 36 -11 6 -20 17 -20 24 0
8 -9 16 -19 19 -11 2 -21 15 -23 28 -2 14 -11 25 -23 28 -20 3 -75 57 -75 73
0 5 -14 14 -31 20 -23 8 -36 22 -50 55 -10 25 -19 51 -19 59 0 8 -6 14 -14 14
-8 0 -19 14 -25 30 -5 17 -17 30 -26 30 -9 0 -19 8 -22 18 -4 9 -17 27 -30 39
-13 12 -23 31 -23 43 0 11 -5 20 -11 20 -16 0 -79 73 -79 92 0 10 -10 20 -25
24 -14 3 -25 13 -25 23 0 9 -9 22 -20 28 -10 7 -22 28 -26 48 -3 19 -11 39
-18 43 -6 4 -17 20 -24 36 -7 16 -15 26 -18 23 -3 -3 -5 -639 -5 -1414 2
-1404 2 -1408 22 -1423 26 -21 37 -69 44 -210 4 -63 9 -122 12 -130 3 -8 9
-75 13 -148 8 -122 10 -134 32 -151 20 -17 23 -29 27 -111 2 -74 7 -96 22
-111 13 -13 19 -33 19 -64 0 -40 3 -45 34 -60 38 -18 132 -36 184 -35 17 0 32
-3 32 -7 1 -14 50 -65 65 -67 19 -3 95 -76 95 -92 0 -6 9 -31 20 -55 24 -53
25 -102 5 -159 -8 -23 -15 -54 -15 -68 0 -17 -17 -42 -56 -80 -48 -47 -57 -62
-64 -106 -4 -28 -9 -55 -10 -61 -7 -31 1 -65 15 -65 9 0 18 -8 22 -17 3 -10
14 -36 24 -58 10 -22 21 -55 25 -73 4 -21 12 -32 24 -32 10 0 23 -7 30 -15 7
-8 9 -15 5 -15 -4 0 2 -15 13 -33 10 -18 22 -49 26 -69 3 -20 13 -41 21 -48
18 -15 75 -125 75 -145 0 -8 7 -15 15 -15 8 0 15 5 15 10 0 6 7 10 15 10 17 0
20 -21 4 -37 -6 -6 -8 -25 -4 -47 6 -29 12 -36 30 -36 17 0 27 -11 44 -49 11
-27 21 -54 21 -60 0 -6 11 -18 25 -27 14 -9 25 -22 25 -29 0 -7 6 -18 13 -24
8 -6 19 -28 26 -49 12 -34 16 -38 42 -34 31 5 34 0 19 -28 -8 -15 -3 -23 25
-44 38 -29 65 -73 65 -106 0 -16 6 -20 30 -20 17 0 30 -5 30 -12 0 -23 42 -98
55 -98 16 0 38 -27 42 -52 2 -11 10 -26 18 -34 8 -9 15 -20 15 -26 0 -6 11 -8
26 -4 24 7 25 5 19 -24 -6 -26 -4 -32 14 -37 12 -3 21 -9 21 -14 0 -4 13 -22
30 -39 16 -17 30 -35 30 -40 0 -6 6 -10 14 -10 17 0 316 -292 316 -309 0 -8 7
-11 20 -8 17 4 22 0 27 -24 4 -20 11 -29 25 -29 10 0 32 -7 48 -15 25 -13 29
-19 23 -45 -6 -33 -5 -34 32 -20 24 9 27 7 41 -25 9 -23 28 -41 54 -55 30 -15
42 -29 47 -50 4 -23 11 -30 29 -30 13 0 28 -8 33 -19 6 -10 22 -22 36 -25 16
-4 25 -13 25 -26 0 -14 9 -21 37 -26 25 -5 38 -3 41 5 2 6 13 11 25 11 l21 0
-22 -16 -22 -15 28 -35 c19 -23 35 -34 54 -34 16 0 34 -9 45 -23 20 -26 105
-77 127 -77 8 0 17 -11 20 -25 5 -20 13 -25 36 -25 17 0 39 -9 50 -20 11 -11
27 -20 35 -20 8 0 22 -11 31 -25 11 -16 26 -25 43 -25 17 0 36 -10 49 -24 11
-14 37 -28 56 -31 19 -4 37 -13 40 -21 4 -11 15 -13 40 -9 19 4 43 2 53 -4 10
-6 12 -11 6 -11 -7 0 -13 -10 -13 -21 0 -19 4 -20 34 -15 24 5 37 2 46 -10 8
-8 30 -24 49 -34 20 -10 45 -27 55 -39 11 -12 30 -21 44 -21 32 0 152 -61 152
-77 0 -7 23 -15 61 -19 38 -4 67 -13 77 -25 10 -9 34 -20 54 -24 21 -4 43 -14
49 -22 10 -12 29 -13 96 -8 46 4 83 4 83 -1 0 -4 -7 -16 -17 -26 -9 -10 -13
-21 -10 -24 4 -4 46 -10 94 -15 48 -5 119 -15 158 -22 63 -12 70 -15 70 -38 0
-23 3 -24 85 -30 99 -7 270 -52 287 -75 9 -13 26 -15 90 -11 43 3 87 6 98 8
11 1 45 -1 76 -5 30 -4 89 -9 130 -10 40 -1 88 -8 104 -16 75 -33 221 -41 675
-37 347 3 421 6 450 19 36 16 138 18 173 3 9 -4 17 -3 17 2 0 24 57 33 210 33
145 0 160 2 169 19 7 12 30 22 68 29 32 6 90 18 128 26 39 8 96 15 127 16 52
0 58 2 70 28 11 22 20 27 48 27 19 1 59 9 89 19 29 10 72 18 95 18 57 -2 73 5
80 33 6 23 11 25 64 25 36 0 66 6 78 15 10 8 40 17 66 21 34 5 52 13 63 30 13
20 24 24 62 24 36 0 51 5 69 25 13 14 34 25 47 25 12 0 28 5 34 11 6 6 30 15
54 20 25 6 55 22 73 41 29 28 125 67 167 68 18 0 33 26 23 41 -3 5 2 10 10 10
9 1 19 3 24 4 4 1 22 6 40 10 18 4 35 12 38 16 3 5 11 9 19 9 8 0 25 11 39 25
16 16 36 25 56 25 20 0 30 5 30 15 0 20 67 62 112 70 24 5 38 13 41 26 3 10
17 23 31 29 15 5 29 17 32 25 4 9 19 15 40 15 22 0 43 9 63 27 17 16 40 36 53
45 13 10 40 31 62 48 21 16 47 30 56 30 10 0 20 10 24 23 5 22 76 67 104 67 6
0 26 17 44 37 49 56 102 105 142 133 20 14 38 32 41 41 3 9 23 21 44 28 24 7
41 19 44 31 3 12 14 20 26 20 14 0 25 9 31 25 5 14 17 25 26 25 12 0 15 6 10
25 -6 22 -3 25 19 25 21 0 25 5 25 30 0 25 4 30 25 30 14 0 25 4 25 10 0 5 11
13 26 16 22 6 24 10 19 35 -6 28 -6 29 20 19 34 -13 32 -14 39 14 3 13 15 26
26 29 11 3 20 12 20 21 0 9 11 18 25 22 14 3 25 13 25 21 0 17 108 163 121
163 5 0 15 15 22 33 16 37 33 53 62 59 11 2 26 16 33 31 7 15 19 27 26 27 8 0
16 9 19 21 3 11 15 23 26 26 16 4 21 13 21 37 0 34 53 106 78 106 7 0 12 14
12 35 0 29 5 37 25 45 14 5 27 21 31 36 4 15 26 49 50 76 24 27 44 55 44 63 0
8 9 20 20 27 11 7 20 16 20 21 0 4 11 25 25 45 14 20 25 44 25 52 0 9 11 31
25 50 14 19 25 41 25 50 0 8 9 21 20 27 10 7 22 28 26 48 4 25 12 35 24 35 22
0 39 75 21 93 -18 18 -13 29 8 17 28 -14 29 -14 36 20 4 17 18 38 31 46 18 12
24 25 24 50 0 34 49 146 69 159 6 3 13 28 17 56 4 33 13 54 27 64 13 9 23 32
28 65 10 65 44 136 68 143 20 5 31 45 31 114 0 30 7 53 20 70 11 14 20 36 20
48 0 12 11 31 25 43 23 20 25 29 25 101 0 62 4 83 19 103 12 15 22 49 26 89 4
35 13 74 21 86 8 13 14 50 14 90 1 93 13 146 38 171 20 20 22 32 23 165 1 151
2 161 23 247 11 42 14 140 14 415 0 198 -3 379 -8 403 -4 23 -3 62 2 85 6 32
5 58 -7 103 -11 39 -18 123 -22 248 -6 179 -7 191 -28 210 -26 24 -33 53 -40
156 -3 41 -10 100 -15 130 -5 30 -12 87 -16 125 -5 50 -12 74 -24 82 -14 10
-19 31 -22 102 -2 65 -7 94 -20 107 -9 11 -20 33 -24 49 -3 17 -15 44 -25 60
-10 17 -19 53 -20 80 -3 79 -10 103 -30 108 -10 3 -20 11 -22 19 -2 7 -10 29
-16 48 -7 19 -19 62 -26 95 -8 36 -22 66 -34 76 -14 12 -21 29 -21 54 0 26 -7
43 -27 61 -22 20 -27 32 -24 65 2 36 0 39 -23 39 -26 0 -48 21 -28 28 30 10 4
112 -28 112 -5 0 -12 15 -16 34 -3 19 -12 37 -19 40 -7 2 -16 23 -20 45 -4 27
-13 42 -25 46 -11 3 -22 16 -26 28 -4 12 -15 33 -25 46 -11 13 -19 34 -19 48
0 16 -8 27 -25 33 -21 8 -25 16 -25 48 0 27 -8 48 -25 68 -14 16 -25 34 -25
41 0 6 -9 15 -20 18 -12 4 -20 15 -20 28 0 39 -12 66 -31 72 -10 3 -21 15 -24
26 -5 16 -13 20 -31 16 -19 -3 -22 -2 -13 9 6 8 8 25 5 39 -5 18 -13 25 -31
25 -21 0 -25 5 -25 30 0 27 -8 40 -71 105 -11 12 -19 35 -19 53 0 27 -4 32
-25 32 -17 0 -25 5 -25 18 0 9 -9 23 -20 30 -11 7 -20 17 -20 23 0 6 -18 30
-41 52 -22 22 -47 53 -55 69 -8 15 -23 32 -34 38 -11 6 -20 18 -20 28 0 9 -9
23 -20 30 -11 7 -20 19 -20 27 0 9 -11 20 -25 25 -14 5 -25 16 -25 25 0 8 -7
15 -15 15 -9 0 -18 8 -22 18 -8 24 -78 98 -153 162 -22 19 -52 52 -66 74 -14
21 -35 41 -45 43 -11 3 -26 18 -35 34 -8 16 -27 36 -42 46 -30 18 -46 32 -112
96 -25 24 -53 46 -63 50 -9 3 -17 13 -17 22 0 8 -4 15 -9 15 -5 0 -27 16 -48
36 -20 20 -52 42 -69 49 -18 7 -40 25 -49 39 -10 14 -25 26 -35 26 -10 0 -22
9 -25 20 -3 11 -12 20 -19 20 -7 0 -24 8 -37 18 -13 11 -36 22 -51 26 -16 3
-28 11 -28 16 0 17 -69 78 -91 82 -12 2 -27 12 -33 23 -15 27 -27 35 -53 35
-13 0 -23 6 -23 14 0 16 -21 26 -55 26 -14 0 -29 9 -35 20 -6 10 -25 22 -43
25 -20 4 -37 15 -42 28 -6 12 -25 25 -45 30 -19 5 -42 14 -50 21 -8 7 -23 16
-33 20 -11 3 -21 15 -24 25 -3 14 -17 21 -48 25 -24 4 -49 14 -55 21 -7 8 -19
15 -27 15 -8 0 -26 13 -41 29 -21 23 -35 29 -64 28 -24 -1 -48 7 -65 19 -16
12 -40 24 -55 27 -15 4 -34 14 -43 23 -8 9 -35 18 -58 22 -26 3 -50 14 -64 29
-36 38 -93 28 -93 -17 0 -15 -7 -33 -16 -41 -20 -16 -54 -84 -60 -118 -8 -45
-55 -100 -113 -134 -62 -35 -93 -41 -102 -17 -8 20 13 53 81 125 32 33 65 71
74 85 20 30 21 111 2 153 -8 18 -16 41 -18 52 -3 18 -12 20 -78 23 -56 2 -80
8 -95 22 -25 23 -71 35 -79 21z m1814 -1001 c0 -5 -2 -10 -4 -10 -3 0 -8 5
-11 10 -3 6 -1 10 4 10 6 0 11 -4 11 -10z m620 -560 c0 -5 -4 -10 -10 -10 -5
0 -10 5 -10 10 0 6 5 10 10 10 6 0 10 -4 10 -10z m-1530 -1474 c0 -2 -11 -1
-25 2 -14 2 -22 8 -19 13 4 8 44 -6 44 -15z m-6391 -2281 c12 -26 12 -33 -5
-65 -10 -19 -28 -39 -39 -44 -47 -21 -51 -87 -5 -101 10 -3 40 -29 66 -58 25
-29 60 -59 77 -67 17 -8 47 -35 65 -60 19 -25 51 -54 71 -65 20 -11 37 -29 39
-40 2 -11 11 -28 20 -38 19 -22 13 -27 -38 -34 -34 -5 -44 -2 -55 14 -8 11
-27 26 -42 32 -15 6 -53 45 -83 86 -30 41 -63 77 -72 80 -32 11 -69 47 -83 82
-8 19 -14 37 -14 41 8 57 -21 49 -96 -25 -54 -53 -69 -63 -100 -63 -32 0 -35
3 -35 28 0 30 22 67 56 95 12 9 35 37 50 61 18 28 43 51 71 65 24 11 43 25 43
31 0 15 71 81 83 77 7 -2 18 -16 26 -32z m-383 -353 c35 -22 17 -104 -25 -115
-11 -3 -29 -20 -40 -38 -25 -43 -52 -69 -101 -100 -58 -35 -79 -84 -81 -194
l-2 -91 49 -51 c28 -29 63 -55 80 -58 16 -4 44 -11 62 -17 42 -13 98 -6 142
17 39 20 52 34 75 82 19 39 47 57 63 41 15 -15 16 -113 2 -139 -6 -10 -18 -19
-28 -19 -20 0 -42 -12 -107 -57 -29 -21 -58 -33 -78 -33 -51 0 -169 43 -231
84 -67 44 -100 93 -129 188 -18 60 -19 74 -8 101 7 18 19 55 28 84 10 32 22
53 33 56 10 3 21 18 25 36 4 17 13 31 21 31 7 0 25 17 39 38 13 21 39 46 56
56 18 11 51 39 74 63 41 42 59 50 81 35z m210 -219 c52 -54 97 -108 100 -120
4 -13 10 -23 14 -23 4 0 18 -21 31 -47 13 -26 30 -54 36 -61 30 -32 30 -155
-1 -177 -10 -7 -16 -26 -16 -48 0 -57 -16 -87 -45 -87 -59 0 -86 50 -50 91 9
9 16 34 15 55 0 22 0 48 0 59 -1 11 2 35 6 52 13 69 -11 123 -68 152 -26 14
-50 41 -73 86 -6 10 -28 28 -50 40 -56 28 -67 41 -63 73 3 24 33 50 61 52 4 0
51 -44 103 -97z m-716 -427 c25 -7 63 -24 85 -37 61 -35 171 -128 186 -157 8
-14 28 -31 46 -39 18 -7 38 -23 44 -35 7 -13 19 -28 28 -34 13 -10 11 -16 -17
-43 -38 -39 -56 -33 -99 31 -19 28 -39 44 -61 50 -21 6 -41 22 -57 46 -40 60
-47 67 -118 107 -67 37 -70 37 -110 24 -150 -49 -207 -121 -207 -265 0 -73 21
-113 85 -164 31 -24 71 -63 88 -85 17 -22 34 -42 37 -45 45 -40 66 -120 38
-148 -10 -10 -20 -5 -48 22 -147 142 -230 233 -230 253 0 11 -16 34 -35 52
-19 17 -35 42 -36 54 -5 108 5 175 37 240 25 49 78 107 99 107 6 0 33 14 58
31 26 17 61 33 79 36 18 3 35 7 37 9 7 7 24 4 71 -10z m7625 -876 c3 -5 1 -10
-4 -10 -6 0 -11 5 -11 10 0 6 2 10 4 10 3 0 8 -4 11 -10z m-5670 -470 c3 -5 1
-10 -4 -10 -6 0 -11 5 -11 10 0 6 2 10 4 10 3 0 8 -4 11 -10z m5155 -150 c0
-5 -4 -10 -10 -10 -5 0 -10 5 -10 10 0 6 5 10 10 10 6 0 10 -4 10 -10z m2497
-142 c-3 -7 -5 -2 -5 12 0 14 2 19 5 13 2 -7 2 -19 0 -25z m-7087 2 c0 -5 -5
-10 -11 -10 -5 0 -7 5 -4 10 3 6 8 10 11 10 2 0 4 -4 4 -10z m4300 -90 c0 -5
-8 -10 -17 -10 -15 0 -16 2 -3 10 19 12 20 12 20 0z"/>
<path d="M6906 6754 c-5 -18 -2 -30 9 -38 9 -6 21 -23 28 -36 7 -14 22 -29 35
-35 15 -6 20 -15 16 -27 -7 -22 4 -58 17 -58 5 0 9 28 9 61 0 53 -4 65 -26 85
-14 13 -29 24 -35 24 -5 0 -15 11 -21 25 -14 32 -24 32 -32 -1z"/>
<path d="M6915 6601 c-9 -16 21 -24 42 -12 10 6 13 11 6 11 -6 0 -18 3 -26 6
-8 3 -18 1 -22 -5z"/>
<path d="M5080 4924 c0 -37 5 -52 25 -70 14 -13 25 -34 25 -47 0 -14 7 -27 15
-31 11 -4 15 -21 16 -58 1 -75 11 -102 37 -106 19 -3 22 -9 22 -53 0 -46 11
-62 25 -39 3 6 14 10 24 10 10 0 23 12 30 26 6 14 29 47 51 73 32 38 40 55 40
88 0 63 -23 103 -99 174 -69 63 -71 64 -96 50 -22 -14 -28 -13 -70 7 l-45 22
0 -46z"/>
</g>
</svg>
