<?xml version="1.0" standalone="no"?>
<!DOCTYPE svg PUBLIC "-//W3C//DTD SVG 20010904//EN"
 "http://www.w3.org/TR/2001/REC-SVG-20010904/DTD/svg10.dtd">
<svg version="1.0" xmlns="http://www.w3.org/2000/svg"
 width="1280.000000pt" height="1280.000000pt" viewBox="0 0 1280.000000 1280.000000"
 preserveAspectRatio="xMidYMid meet">

<g transform="translate(0.000000,1280.000000) scale(0.100000,-0.100000)"
fill="#000000" stroke="none">
<path d="M2284 11560 c-12 -5 -29 -19 -38 -32 -15 -20 -16 -217 -16 -2204 0
-1200 3 -2189 6 -2198 4 -11 19 -16 44 -16 29 0 41 6 55 26 17 26 78 197 96
269 6 21 14 44 18 50 5 5 12 26 16 45 4 19 12 41 18 49 12 14 31 61 49 120 5
19 16 44 23 55 7 12 20 44 30 71 14 39 121 271 165 356 5 9 12 33 15 52 4 20
13 41 21 48 8 6 14 18 14 25 0 8 19 42 43 77 24 34 72 121 107 192 35 72 82
159 104 195 61 95 65 103 77 130 5 13 13 27 17 30 11 8 52 68 52 77 1 4 14 24
30 43 17 19 30 39 30 45 0 14 101 172 138 215 16 19 55 73 87 120 31 47 72
102 91 124 19 21 43 55 54 75 10 20 34 50 53 68 19 18 51 56 70 85 19 29 56
73 82 98 26 25 62 68 80 95 42 64 814 837 869 869 22 13 64 48 91 76 28 29 73
66 100 84 28 18 66 49 85 70 19 20 55 49 80 63 25 14 56 38 70 52 14 15 46 38
71 53 25 15 52 34 59 43 7 9 36 32 64 50 83 56 154 136 162 182 5 35 3 42 -21
61 l-28 22 -1606 -1 c-883 0 -1616 -4 -1627 -9z"/>
<path d="M6723 11555 c-17 -7 -40 -26 -50 -41 -17 -26 -18 -68 -21 -664 -2
-349 0 -650 3 -668 12 -64 30 -72 173 -72 84 -1 140 -6 167 -15 26 -10 80 -15
150 -15 70 0 131 -6 165 -16 30 -8 89 -19 130 -23 67 -6 156 -29 202 -52 10
-5 34 -13 55 -18 139 -35 372 -159 471 -251 19 -17 50 -39 70 -50 44 -23 176
-157 217 -220 15 -25 41 -58 56 -74 31 -33 150 -264 175 -341 9 -27 22 -75 29
-105 8 -30 18 -73 24 -95 14 -52 14 -438 0 -490 -6 -22 -17 -65 -24 -95 -32
-129 -117 -313 -211 -455 -50 -76 -249 -285 -271 -285 -6 0 -33 -19 -59 -43
-27 -23 -71 -54 -99 -67 -27 -14 -66 -37 -85 -51 -19 -14 -64 -36 -100 -49
-36 -13 -69 -27 -75 -31 -5 -4 -86 -33 -180 -64 -112 -38 -192 -59 -235 -62
-36 -3 -84 -11 -108 -19 -32 -11 -110 -14 -315 -14 -207 -1 -276 -4 -289 -14
-25 -18 -38 -60 -38 -119 -1 -29 -7 -70 -15 -92 -9 -25 -15 -79 -15 -142 0
-60 -6 -120 -14 -145 -8 -24 -17 -74 -20 -113 -3 -38 -13 -88 -21 -110 -8 -22
-14 -63 -15 -92 0 -29 -6 -72 -14 -95 -8 -24 -17 -70 -20 -102 -4 -33 -10 -64
-15 -70 -5 -6 -11 -31 -15 -56 -4 -25 -14 -65 -22 -90 -11 -31 -14 -61 -9 -95
12 -91 -18 -85 454 -85 350 0 425 -3 471 -16 30 -8 108 -19 172 -23 64 -4 123
-12 130 -18 7 -6 44 -13 82 -16 37 -4 74 -11 80 -16 7 -6 30 -14 51 -20 97
-24 250 -84 365 -143 134 -68 181 -98 263 -167 29 -23 63 -48 77 -54 34 -16
220 -203 250 -252 13 -22 38 -55 55 -73 66 -69 219 -417 241 -547 4 -22 11
-49 17 -60 10 -18 27 -230 27 -330 0 -100 -17 -312 -27 -330 -6 -11 -13 -38
-17 -60 -11 -63 -74 -243 -113 -325 -40 -84 -117 -205 -166 -263 -17 -22 -42
-55 -54 -75 -31 -51 -159 -178 -218 -216 -27 -18 -61 -44 -75 -57 -14 -14 -47
-36 -75 -49 -27 -14 -66 -37 -85 -51 -46 -35 -159 -91 -240 -119 -36 -13 -70
-27 -76 -32 -21 -15 -128 -46 -290 -84 -34 -7 -74 -18 -89 -24 -14 -5 -95 -10
-178 -10 -119 -1 -161 -5 -192 -18 -37 -15 -149 -17 -1355 -19 -723 -2 -1326
-5 -1339 -8 -14 -4 -176 -158 -379 -361 -196 -195 -361 -354 -368 -354 -7 0
-50 -35 -96 -78 -46 -43 -103 -90 -128 -106 -25 -16 -61 -46 -80 -65 -20 -20
-56 -48 -80 -63 -25 -14 -58 -40 -74 -57 -17 -17 -35 -31 -41 -31 -5 0 -33
-19 -60 -43 -28 -24 -71 -56 -97 -72 -27 -17 -48 -33 -48 -36 0 -4 -10 -9 -23
-13 -13 -3 -40 -22 -60 -41 -28 -28 -37 -44 -37 -70 0 -71 -215 -65 2441 -63
2065 3 2397 5 2419 17 17 10 66 16 150 19 69 2 134 9 145 15 11 6 63 13 115
17 97 7 392 75 475 110 23 9 105 37 150 50 52 15 102 35 116 47 8 6 25 14 39
18 14 4 34 14 45 21 11 8 26 14 33 14 27 0 219 92 272 130 19 14 60 38 90 54
71 36 177 107 215 144 17 16 41 33 55 37 32 10 492 470 515 515 10 19 32 49
49 67 17 17 49 59 71 93 49 77 52 81 59 100 4 8 17 33 31 55 49 82 65 115 65
133 0 11 7 25 15 32 8 7 15 17 15 23 0 12 40 97 56 117 6 8 14 24 17 35 3 11
16 47 27 80 42 115 79 259 141 535 17 77 24 852 8 882 -6 12 -15 58 -19 102
-5 45 -14 101 -20 126 -27 98 -82 277 -96 308 -8 18 -14 40 -14 49 0 26 -230
484 -246 490 -8 3 -14 11 -14 18 0 7 -16 33 -35 58 -19 25 -35 50 -35 54 0 5
-19 31 -43 58 -23 28 -56 70 -71 95 -16 25 -125 140 -241 255 -198 197 -262
255 -283 255 -5 0 -19 12 -33 26 -13 15 -46 42 -74 60 -27 18 -66 47 -85 64
-19 17 -48 38 -65 47 -16 9 -32 19 -35 23 -3 4 -36 25 -75 45 -38 21 -84 48
-101 61 -16 13 -46 31 -65 39 -46 22 -68 35 -110 68 -20 15 -40 27 -46 27 -6
0 -22 10 -37 21 l-27 22 50 28 c28 16 51 34 51 39 0 6 6 10 14 10 7 0 34 16
59 35 25 19 49 35 52 35 4 0 24 13 44 29 20 15 51 36 69 45 18 9 51 35 74 57
22 21 47 39 55 39 21 0 439 414 479 475 18 28 49 68 68 89 20 22 39 49 42 60
4 12 17 34 30 49 28 34 190 359 200 402 3 17 12 39 18 50 20 32 44 107 51 155
4 25 11 50 15 55 4 6 11 30 15 55 4 25 13 64 21 88 8 23 14 65 14 93 0 27 7
66 15 86 12 29 15 96 15 373 0 277 -3 344 -15 373 -8 20 -15 61 -15 91 0 31
-6 75 -14 98 -8 24 -17 59 -21 78 -8 43 -29 112 -62 205 -14 39 -28 84 -33
100 -5 17 -15 48 -24 70 -8 22 -15 46 -16 52 0 22 -101 226 -129 263 -14 19
-30 42 -36 52 -25 42 -95 144 -108 158 -8 8 -18 26 -22 40 -10 33 -418 444
-474 477 -24 15 -55 37 -68 49 -95 88 -539 338 -638 359 -16 4 -39 11 -50 16
-63 28 -453 149 -483 149 -21 1 -55 7 -77 15 -22 8 -60 15 -85 15 -25 0 -63 5
-85 11 -22 6 -96 15 -165 19 -71 4 -146 14 -173 23 -41 15 -103 17 -470 17
-336 -1 -428 -4 -454 -15z"/>
<path d="M6183 11098 c-176 -96 -279 -167 -348 -238 -33 -34 -78 -71 -100 -82
-73 -37 -156 -92 -216 -145 -32 -29 -71 -55 -86 -59 -71 -15 -97 -29 -158 -85
-36 -32 -70 -59 -75 -59 -6 0 -45 -33 -88 -74 -42 -40 -90 -80 -107 -89 -36
-19 -735 -718 -735 -735 0 -7 -34 -49 -75 -93 -41 -44 -75 -84 -75 -89 0 -5
-27 -39 -60 -76 -33 -36 -60 -70 -60 -75 0 -5 -17 -28 -37 -50 -21 -23 -47
-56 -58 -74 -44 -72 -80 -122 -117 -164 -21 -24 -38 -49 -38 -56 0 -7 -50 -87
-110 -178 -61 -91 -110 -169 -110 -174 0 -5 -17 -33 -37 -63 -52 -77 -350
-670 -379 -754 -13 -38 -28 -74 -33 -80 -4 -6 -16 -36 -26 -66 -10 -30 -27
-73 -38 -94 -13 -25 -23 -69 -27 -122 -5 -58 -12 -90 -24 -103 -15 -17 -38
-90 -66 -211 -19 -79 -40 -130 -74 -174 -19 -26 -38 -63 -41 -84 -4 -20 -20
-80 -35 -132 -50 -166 -60 -206 -60 -237 0 -17 -7 -50 -15 -73 -8 -23 -15 -67
-15 -97 0 -29 -7 -70 -15 -90 -8 -19 -15 -60 -15 -90 0 -29 -7 -70 -15 -91 -9
-20 -18 -66 -20 -102 -2 -36 -11 -85 -19 -109 -10 -28 -16 -77 -16 -136 0 -57
-6 -109 -15 -135 -13 -37 -15 -295 -15 -2089 0 -1156 4 -2052 9 -2060 13 -21
56 -6 133 45 36 24 70 44 76 44 5 0 28 14 51 30 23 17 61 41 84 53 50 25 331
212 379 251 57 46 121 95 163 122 22 14 60 46 85 69 25 23 65 55 90 70 25 15
65 49 90 75 25 26 70 63 100 83 61 40 681 659 723 722 14 22 49 65 77 95 29
30 65 75 80 100 16 25 45 60 65 79 20 18 43 47 52 65 9 17 36 53 59 80 24 26
44 54 44 61 0 6 9 20 20 30 11 10 22 33 26 51 3 18 19 54 35 79 16 25 29 49
29 54 0 4 61 99 135 210 74 111 135 208 135 214 0 32 53 118 98 161 39 37 66
78 116 180 37 72 66 138 66 146 0 22 28 105 61 180 15 36 31 76 35 90 4 14 17
47 30 74 13 28 24 55 24 61 0 6 14 32 30 58 17 26 30 56 30 67 0 46 165 497
194 528 21 24 86 217 86 259 0 17 5 44 11 60 6 15 15 48 19 73 11 56 27 121
46 180 8 25 14 62 14 83 0 21 7 54 15 74 8 19 15 53 15 75 0 21 7 55 15 75 10
23 15 69 15 133 0 61 6 113 15 140 19 55 19 148 0 194 -18 43 -8 95 25 131
l20 21 -2 2039 c-2 1378 -6 2039 -13 2042 -6 2 -29 -7 -52 -19z"/>
<path d="M2658 7141 c-38 -37 -6 -81 32 -46 25 23 27 65 3 64 -10 0 -26 -8
-35 -18z"/>
</g>
</svg>
