<?xml version="1.0" standalone="no"?>
<!DOCTYPE svg PUBLIC "-//W3C//DTD SVG 20010904//EN"
 "http://www.w3.org/TR/2001/REC-SVG-20010904/DTD/svg10.dtd">
<svg version="1.0" xmlns="http://www.w3.org/2000/svg"
 width="1920.000000pt" height="1920.000000pt" viewBox="0 0 1920.000000 1920.000000"
 preserveAspectRatio="xMidYMid meet">

<g transform="translate(0.000000,1920.000000) scale(0.100000,-0.100000)"
fill="#000000" stroke="none">
<path d="M4830 18450 c-16 -30 -12 -65 11 -94 17 -21 23 -50 30 -134 12 -133
11 -643 -1 -982 -8 -233 -11 -262 -35 -335 -15 -46 -30 -125 -36 -185 -18
-196 -30 -273 -49 -309 -24 -47 -40 -137 -40 -222 0 -63 -11 -111 -55 -229 -9
-24 -21 -97 -26 -161 -8 -95 -15 -129 -39 -182 -21 -47 -33 -94 -41 -164 -8
-75 -18 -114 -44 -168 -23 -48 -36 -92 -40 -140 -7 -64 -20 -104 -60 -176 -8
-15 -18 -56 -21 -90 -4 -40 -19 -93 -40 -139 -22 -51 -36 -103 -44 -163 -8
-62 -19 -105 -40 -145 -20 -38 -34 -84 -41 -137 -7 -54 -18 -91 -34 -115 -31
-46 -41 -73 -50 -140 -4 -30 -22 -89 -40 -130 -27 -61 -34 -93 -40 -175 -5
-75 -15 -118 -37 -174 -32 -80 -48 -186 -48 -316 0 -78 -12 -176 -45 -380 -22
-133 -15 -378 14 -523 13 -63 25 -179 31 -293 8 -151 14 -201 31 -247 41 -109
47 -138 56 -243 7 -82 15 -117 35 -155 27 -52 48 -134 48 -188 0 -19 11 -49
26 -71 33 -50 44 -77 55 -149 6 -37 21 -75 39 -100 18 -27 33 -68 44 -120 9
-45 23 -88 34 -100 28 -30 39 -55 47 -104 4 -27 19 -57 37 -78 19 -21 34 -53
39 -82 7 -32 20 -57 44 -82 24 -24 36 -48 41 -79 5 -29 18 -57 40 -80 17 -20
37 -56 44 -80 6 -24 25 -60 40 -80 16 -20 36 -56 45 -81 9 -24 24 -54 34 -65
10 -11 28 -38 39 -60 11 -22 32 -51 46 -64 14 -13 32 -48 41 -77 11 -37 24
-59 45 -74 17 -12 30 -27 30 -34 0 -7 13 -31 29 -53 16 -23 41 -64 55 -91 14
-28 34 -57 44 -64 10 -7 29 -29 42 -48 13 -19 30 -39 37 -43 7 -5 27 -34 44
-65 34 -63 91 -145 129 -184 44 -44 138 -172 187 -252 10 -16 52 -64 93 -107
41 -44 95 -102 120 -130 25 -28 69 -76 99 -107 30 -31 76 -86 103 -122 53 -70
308 -342 398 -424 30 -28 100 -94 155 -147 230 -223 374 -349 396 -349 6 0 27
-17 49 -37 91 -88 112 -104 133 -101 34 5 31 33 -7 72 -20 19 -36 40 -36 46 0
5 -15 27 -33 47 -18 21 -48 62 -66 90 -18 29 -36 53 -40 53 -4 0 -15 15 -25
33 -11 17 -35 50 -55 73 -20 22 -45 55 -56 74 -11 18 -31 52 -45 75 -14 23
-42 61 -62 84 -21 22 -38 45 -38 49 0 5 -15 26 -34 47 -19 21 -37 51 -40 66
-3 16 -20 45 -39 66 -18 21 -41 52 -52 68 -10 17 -26 36 -36 43 -10 6 -25 36
-34 65 -10 28 -30 63 -45 77 -15 14 -36 48 -46 75 -9 28 -28 61 -40 75 -13 14
-30 44 -38 68 -8 23 -28 61 -44 85 -16 23 -35 59 -41 79 -7 20 -21 48 -31 61
-11 14 -29 46 -40 72 -11 27 -34 63 -50 81 -18 21 -31 50 -35 79 -4 26 -20 63
-37 86 -17 23 -38 69 -47 103 -9 34 -31 82 -48 107 -18 26 -34 65 -38 92 -5
33 -18 61 -41 88 -22 27 -34 52 -34 72 -1 41 -20 93 -52 139 -17 24 -29 61
-36 109 -7 45 -18 79 -30 93 -34 37 -42 63 -51 155 -7 76 -13 98 -40 140 -28
43 -34 63 -42 148 -7 72 -14 105 -29 125 -34 46 -42 78 -51 202 -8 107 -12
127 -44 191 -34 69 -35 75 -35 186 -1 168 -16 292 -48 399 l-29 95 -5 360 c-3
198 -2 477 2 620 7 240 10 266 33 335 28 85 34 127 46 326 7 116 12 148 29
175 29 49 41 100 52 235 7 95 13 123 30 144 31 39 41 69 50 152 6 61 14 87 39
126 23 36 33 68 41 128 14 103 16 109 52 149 23 27 32 49 39 102 5 37 13 71
18 76 4 4 14 -12 21 -38 14 -51 2 -145 -23 -174 -23 -27 -28 -52 -37 -187 -7
-113 -12 -141 -40 -210 l-32 -79 -8 -250 c-6 -180 -13 -263 -24 -295 -37 -109
-48 -286 -48 -765 0 -476 5 -560 44 -710 16 -63 21 -130 27 -320 l8 -240 33
-75 c29 -65 34 -91 41 -194 6 -106 11 -125 39 -180 28 -52 34 -76 41 -166 8
-118 12 -131 47 -179 20 -27 27 -52 34 -130 8 -83 13 -102 40 -141 24 -34 34
-64 43 -127 9 -61 20 -93 43 -128 21 -32 33 -64 37 -103 9 -87 12 -95 44 -131
20 -23 32 -49 36 -80 10 -69 25 -113 51 -144 24 -29 28 -39 39 -112 4 -25 18
-52 37 -72 22 -23 33 -47 39 -83 6 -36 18 -62 43 -92 20 -23 36 -52 36 -65 0
-32 25 -89 44 -100 8 -4 26 -33 40 -64 27 -62 51 -79 75 -54 14 13 17 62 22
323 l6 307 31 70 c34 79 39 108 47 290 6 121 9 135 41 200 28 58 35 85 39 160
9 129 13 149 40 189 26 39 45 122 45 201 0 32 8 65 21 90 12 22 28 52 35 66 8
15 19 73 24 129 8 88 14 109 40 148 30 45 34 61 45 164 4 39 16 71 36 102 23
34 34 67 44 136 10 64 22 105 43 142 19 34 33 75 37 113 5 39 16 73 32 97 34
51 52 104 53 159 0 29 7 55 19 70 35 46 50 87 60 163 7 57 17 88 39 124 22 33
35 72 46 134 8 48 27 112 41 142 18 38 29 85 37 153 6 62 21 128 40 178 25 67
32 104 40 225 10 152 24 245 58 369 26 96 37 466 22 761 -9 176 -14 216 -36
285 -19 59 -29 117 -36 220 -12 175 -14 183 -49 275 -20 52 -33 107 -40 178
-7 80 -15 113 -35 146 -14 24 -34 82 -44 129 -11 53 -29 101 -46 125 -16 23
-30 63 -36 97 -5 33 -20 74 -35 95 -15 21 -35 65 -45 99 -10 34 -32 83 -49
110 -17 26 -36 63 -43 82 -6 19 -21 48 -33 64 -12 17 -30 50 -39 75 -10 25
-28 59 -40 75 -13 17 -34 56 -49 88 -14 31 -33 60 -42 63 -8 3 -22 30 -30 59
-9 29 -29 67 -46 84 -17 18 -39 51 -50 74 -27 58 -83 145 -117 181 -36 40
-106 134 -122 166 -21 41 -65 93 -200 240 -19 21 -57 66 -85 100 -27 34 -78
92 -112 129 -34 36 -74 82 -90 102 -15 19 -66 71 -113 114 -47 43 -112 106
-146 139 -63 63 -150 140 -191 167 -25 17 -142 120 -209 184 -64 62 -124 108
-173 132 -24 13 -56 34 -70 47 -81 76 -121 105 -163 119 -46 15 -48 15 -58 -3z"/>
<path d="M11298 13768 c-14 -5 -32 -24 -42 -44 -9 -20 -60 -88 -114 -151 -53
-62 -107 -128 -120 -145 -12 -17 -39 -48 -60 -68 -20 -20 -42 -43 -48 -51 -32
-40 -356 -345 -380 -357 -16 -8 -63 -45 -105 -81 -42 -36 -105 -88 -139 -116
-34 -27 -79 -67 -101 -87 -23 -21 -45 -38 -51 -38 -14 0 -158 -95 -188 -125
-14 -13 -45 -31 -70 -40 -25 -9 -56 -27 -70 -40 -14 -13 -44 -31 -68 -39 -23
-8 -62 -29 -86 -46 -25 -16 -55 -34 -68 -39 -13 -5 -38 -21 -55 -35 -18 -15
-56 -34 -85 -42 -29 -9 -64 -26 -78 -39 -16 -16 -54 -31 -108 -43 -46 -11 -93
-29 -105 -40 -32 -28 -56 -39 -112 -47 -27 -4 -75 -20 -107 -37 -32 -16 -85
-33 -121 -38 -75 -11 -90 -16 -137 -46 -19 -12 -61 -30 -92 -39 -31 -9 -73
-29 -93 -45 -21 -16 -59 -34 -89 -40 -34 -7 -66 -22 -87 -41 -18 -16 -51 -35
-74 -41 -37 -11 -89 -45 -172 -113 -18 -15 -50 -35 -71 -45 -21 -11 -58 -35
-81 -54 -24 -20 -46 -36 -51 -36 -12 0 -387 -375 -459 -459 -34 -40 -71 -92
-81 -115 -9 -23 -25 -48 -35 -56 -9 -8 -32 -38 -51 -67 -19 -29 -38 -53 -43
-53 -5 0 -19 -26 -31 -57 -11 -31 -34 -71 -50 -90 -16 -18 -34 -52 -40 -75 -7
-24 -22 -54 -35 -68 -29 -32 -41 -56 -49 -101 -4 -20 -20 -54 -36 -74 -17 -21
-30 -38 -30 -39 -3 -50 -26 -129 -49 -165 -20 -30 -34 -70 -41 -114 -6 -38
-25 -97 -42 -130 -28 -56 -32 -75 -39 -197 -11 -166 -14 -185 -47 -285 l-27
-80 0 -335 0 -335 28 -65 c24 -55 30 -86 38 -200 14 -214 14 -211 76 -291 l55
-71 19 28 c23 35 28 70 38 251 7 133 10 145 36 185 20 30 32 67 41 121 9 54
22 92 43 125 19 30 32 67 37 102 4 38 17 71 40 105 23 35 37 71 45 119 8 50
18 76 35 91 13 12 37 51 53 87 16 36 34 68 39 72 6 3 22 37 37 75 14 38 33 75
41 82 9 7 25 30 36 52 11 22 33 51 48 64 16 13 34 40 41 61 6 20 22 48 34 62
12 14 31 39 41 55 10 17 32 44 49 61 16 17 68 73 115 124 93 103 266 276 327
328 99 84 132 111 183 148 30 23 69 48 85 57 17 8 43 29 59 46 17 17 35 31 41
31 6 0 27 12 46 26 19 14 59 37 89 51 30 14 64 35 75 48 11 13 43 31 72 40 28
9 68 29 87 44 20 16 57 34 83 40 26 7 61 25 79 40 22 20 51 32 93 39 34 6 73
20 87 31 37 29 92 38 111 18 14 -14 12 -17 -15 -31 -17 -9 -44 -28 -59 -42
-15 -14 -46 -35 -68 -46 -42 -22 -89 -58 -155 -120 -22 -20 -49 -40 -62 -43
-61 -19 -211 -149 -447 -387 -255 -256 -303 -311 -392 -445 -23 -35 -45 -63
-49 -63 -5 0 -19 -17 -31 -37 -13 -21 -36 -49 -51 -61 -16 -13 -28 -30 -28
-37 0 -7 -16 -34 -35 -59 -19 -25 -44 -64 -56 -88 -12 -24 -32 -53 -45 -64
-12 -12 -28 -41 -34 -65 -7 -24 -27 -60 -45 -82 -18 -21 -36 -53 -39 -72 -4
-18 -20 -49 -36 -70 -27 -34 -41 -66 -54 -125 -3 -14 -19 -40 -35 -59 -21 -23
-32 -50 -40 -93 -6 -34 -22 -79 -37 -101 -16 -25 -31 -68 -39 -114 -7 -42 -27
-103 -44 -137 -24 -47 -33 -84 -41 -164 -9 -86 -16 -110 -42 -152 -23 -37 -31
-65 -35 -114 -7 -78 0 -107 28 -124 18 -11 24 -11 40 4 10 9 19 22 19 27 0 5
19 31 43 57 23 26 58 69 77 94 35 47 175 185 266 262 27 23 93 81 147 128 53
47 101 86 106 86 4 0 28 16 52 35 24 19 56 37 70 40 14 3 41 21 59 40 21 21
48 37 69 41 43 8 67 19 104 50 15 13 44 26 65 30 44 8 84 27 101 48 13 16 54
31 112 40 20 4 57 20 82 37 34 22 67 34 119 41 47 7 97 23 139 44 36 19 79 34
95 34 54 0 148 21 174 40 37 26 91 38 215 45 130 8 176 18 200 44 9 11 42 25
74 31 85 17 123 30 156 55 17 13 55 28 86 34 32 7 75 26 102 45 26 19 62 37
81 40 18 4 44 18 57 32 13 14 42 35 64 46 22 12 55 34 73 49 18 16 39 29 47
29 31 0 387 332 530 494 22 25 59 66 83 91 23 26 42 51 42 57 0 6 15 31 34 57
18 25 37 57 41 70 4 12 24 40 44 61 21 22 43 57 50 80 6 22 25 55 41 74 17 18
30 37 30 42 0 5 16 34 35 66 20 32 43 81 52 110 8 29 28 71 44 94 19 28 31 61
35 99 4 35 16 68 30 88 34 46 42 69 54 145 6 38 24 93 41 127 27 51 32 74 39
170 5 83 15 134 40 210 l34 100 4 433 c4 468 -1 544 -44 664 -20 58 -27 102
-34 209 -7 128 -9 139 -44 209 -21 43 -36 89 -36 109 0 51 -16 103 -46 147
-24 34 -42 115 -44 186 0 27 -48 75 -78 80 -16 2 -40 0 -54 -4z"/>
<path d="M12111 11953 c-23 -9 -61 -105 -61 -154 0 -26 -7 -66 -15 -90 -9 -24
-20 -105 -25 -179 -6 -74 -12 -160 -14 -191 -3 -38 -13 -72 -34 -110 -25 -44
-33 -73 -41 -152 -8 -84 -15 -106 -41 -147 -21 -33 -34 -69 -40 -111 -6 -38
-18 -75 -34 -98 -26 -37 -37 -64 -56 -137 -5 -23 -23 -58 -40 -78 -18 -24 -31
-55 -36 -84 -4 -31 -16 -57 -34 -77 -16 -16 -39 -51 -52 -76 -40 -80 -99 -173
-119 -187 -11 -7 -26 -28 -35 -45 -9 -18 -34 -55 -55 -83 -57 -75 -51 -114 24
-158 23 -14 62 -28 87 -31 65 -10 110 -25 151 -52 19 -13 64 -28 100 -34 48
-9 72 -19 95 -41 17 -16 53 -36 80 -44 26 -8 60 -25 74 -39 14 -13 47 -33 74
-44 26 -12 60 -31 75 -42 14 -11 42 -27 61 -35 19 -8 46 -26 60 -40 35 -35
157 -122 183 -130 12 -3 36 -21 53 -38 18 -17 55 -51 84 -76 69 -60 330 -317
408 -403 35 -38 73 -85 86 -105 13 -21 31 -44 40 -51 10 -8 24 -28 33 -45 16
-31 72 -107 122 -167 17 -19 40 -58 51 -85 12 -27 30 -58 40 -69 11 -11 26
-38 36 -60 9 -22 26 -53 38 -70 13 -16 31 -55 41 -85 9 -30 30 -78 46 -106 16
-28 33 -73 39 -102 6 -28 24 -70 40 -94 19 -28 33 -68 40 -113 7 -38 25 -98
42 -132 25 -54 32 -84 43 -210 10 -107 21 -171 42 -233 l28 -85 0 -425 0 -425
-28 -83 c-20 -56 -33 -123 -42 -210 -10 -106 -17 -137 -43 -187 -16 -33 -35
-89 -41 -125 -7 -39 -23 -84 -41 -114 -17 -26 -36 -72 -42 -100 -6 -28 -23
-69 -39 -91 -16 -22 -36 -65 -45 -95 -9 -30 -22 -59 -30 -63 -16 -9 -54 -80
-54 -101 0 -8 -16 -33 -35 -56 -19 -23 -35 -46 -35 -51 0 -5 -15 -26 -34 -46
-18 -21 -44 -58 -56 -83 -22 -43 -42 -70 -128 -168 -39 -45 -465 -474 -517
-521 -16 -15 -46 -38 -65 -51 -19 -13 -39 -28 -45 -35 -5 -6 -35 -28 -65 -48
-95 -64 -124 -85 -157 -112 -18 -15 -57 -36 -85 -47 -29 -11 -64 -30 -78 -43
-14 -13 -52 -35 -85 -50 -32 -14 -67 -32 -75 -40 -9 -8 -43 -24 -76 -35 -32
-11 -75 -31 -94 -44 -20 -13 -59 -28 -87 -34 -29 -7 -78 -25 -111 -42 -38 -21
-84 -34 -133 -41 -48 -6 -95 -21 -133 -40 -51 -26 -79 -33 -200 -45 -78 -7
-179 -23 -225 -34 -46 -11 -129 -25 -185 -32 -136 -14 -507 -4 -601 17 -135
31 -221 44 -331 53 -92 7 -121 14 -165 36 -41 22 -180 56 -230 56 -3 0 -23 11
-44 26 -20 14 -65 32 -99 40 -33 9 -77 26 -96 40 -19 13 -61 32 -93 43 -32 11
-70 29 -85 39 -15 11 -56 33 -92 49 -36 16 -71 37 -78 46 -8 9 -30 21 -50 28
-20 6 -50 24 -67 39 -16 15 -46 36 -65 45 -19 10 -55 32 -80 50 -25 18 -50 34
-57 36 -11 4 -101 84 -267 239 -115 107 -190 182 -281 285 -44 49 -98 108
-120 131 -47 49 -98 117 -128 173 -26 45 -69 107 -113 159 -16 21 -36 56 -42
79 -7 23 -27 60 -46 82 -18 22 -37 57 -41 77 -3 21 -21 56 -40 78 -23 29 -35
56 -40 93 -4 29 -19 71 -34 96 -30 46 -45 88 -56 151 -3 21 -19 62 -35 90 -22
40 -31 73 -40 151 -7 69 -18 116 -36 152 -30 63 -44 140 -44 253 0 47 -6 126
-12 175 -7 50 -11 146 -9 215 l2 125 -42 63 c-30 44 -57 71 -88 88 -91 50
-151 92 -228 161 -43 38 -89 76 -103 83 -14 7 -61 43 -105 80 -44 37 -89 72
-100 78 -43 23 -656 626 -910 896 -71 76 -144 153 -162 170 -17 17 -39 48 -47
70 -9 21 -32 57 -51 80 -19 22 -54 64 -77 92 -24 28 -73 85 -111 125 -49 54
-71 88 -82 124 -9 28 -29 64 -45 80 -16 17 -40 43 -53 58 -22 28 -23 29 -45
10 l-23 -18 4 -1435 c3 -1549 0 -1431 52 -1620 8 -30 20 -133 25 -228 10 -160
13 -178 40 -239 21 -47 33 -94 41 -162 8 -72 18 -111 41 -155 20 -39 34 -89
43 -148 10 -68 21 -100 44 -134 17 -26 33 -66 36 -93 9 -64 23 -106 45 -133
10 -13 27 -51 38 -83 10 -33 33 -81 50 -108 16 -26 33 -68 37 -92 3 -25 17
-58 31 -75 14 -16 36 -57 50 -92 13 -34 33 -71 44 -83 10 -11 26 -41 35 -65 9
-25 27 -61 40 -80 13 -19 31 -52 40 -74 9 -21 31 -60 48 -86 18 -26 40 -60 50
-76 66 -109 89 -143 112 -174 25 -33 64 -92 109 -164 26 -41 82 -112 208 -263
24 -28 61 -75 83 -104 61 -80 230 -264 335 -365 93 -90 132 -124 315 -279 50
-41 108 -91 130 -111 98 -86 157 -129 269 -198 17 -11 50 -34 73 -53 23 -18
45 -33 50 -33 8 0 102 -57 175 -107 18 -13 62 -37 98 -54 36 -17 78 -42 93
-55 15 -13 46 -28 68 -34 21 -6 55 -24 73 -41 19 -16 57 -36 85 -45 27 -8 63
-25 78 -38 16 -14 55 -31 87 -40 34 -8 70 -26 86 -41 17 -16 50 -31 87 -40 33
-8 82 -28 109 -44 32 -20 73 -34 117 -41 41 -6 89 -22 120 -40 33 -18 79 -33
127 -40 41 -7 104 -25 140 -40 36 -16 110 -36 164 -45 55 -8 127 -27 160 -41
49 -20 95 -28 235 -39 98 -8 242 -29 330 -47 l156 -31 500 -1 c526 -1 652 6
810 45 44 11 152 26 240 34 129 11 173 19 225 41 36 15 109 33 165 41 67 9
119 23 160 43 35 16 93 33 139 40 53 8 97 22 132 41 29 17 80 34 116 40 38 6
82 21 110 39 26 16 74 35 106 44 33 8 77 26 97 41 21 14 61 32 89 40 28 9 69
28 91 44 22 16 65 36 96 45 31 8 63 23 70 33 8 9 39 27 69 40 30 14 69 35 86
48 16 13 48 31 69 40 22 9 49 24 60 35 11 10 42 28 69 40 27 11 64 34 82 50
19 16 51 34 72 40 21 5 47 19 58 31 10 12 38 32 61 46 24 14 43 29 43 34 0 5
21 23 48 39 111 69 239 169 367 289 17 15 41 35 55 45 73 49 430 400 494 486
45 62 175 212 216 250 25 24 104 139 130 190 7 14 31 46 54 71 60 68 104 130
111 159 3 14 23 45 45 68 21 24 41 55 45 69 3 14 17 40 30 57 13 17 33 54 45
81 12 28 30 59 40 70 10 11 28 45 40 77 11 31 28 62 36 69 21 17 40 57 48 99
3 19 20 51 36 71 16 20 34 59 41 85 6 27 27 77 46 111 20 36 36 82 40 113 4
38 15 62 38 90 25 30 36 56 45 107 6 39 24 91 42 121 22 38 33 75 39 130 7 52
19 96 39 135 26 50 32 78 45 200 10 107 20 156 39 198 30 68 34 98 46 319 5
96 19 247 30 335 18 135 21 188 15 340 -3 99 -13 241 -21 315 -8 74 -19 227
-24 340 -13 264 -15 280 -49 381 -24 67 -32 112 -40 227 -8 127 -13 150 -40
208 -21 45 -34 93 -40 149 -8 64 -18 98 -45 150 -20 36 -36 81 -36 98 0 46
-16 95 -44 136 -14 20 -30 59 -36 86 -5 28 -12 60 -15 72 -3 12 -16 34 -29 50
-13 16 -29 54 -36 88 -6 33 -27 85 -46 116 -18 31 -39 80 -45 109 -7 31 -23
65 -40 85 -16 18 -36 56 -44 83 -8 27 -23 56 -32 63 -9 8 -27 39 -40 69 -14
30 -35 69 -47 85 -13 17 -28 46 -35 66 -6 20 -25 49 -41 64 -17 16 -35 47 -41
70 -6 22 -28 59 -48 82 -79 93 -99 120 -121 163 -12 25 -35 61 -51 80 -94 116
-117 144 -146 176 -18 19 -42 52 -53 74 -11 21 -24 42 -30 45 -6 4 -21 23 -34
43 -13 21 -57 71 -97 113 -41 42 -81 85 -91 95 -16 19 -220 223 -248 249 -8 8
-55 52 -105 98 -116 109 -161 148 -210 181 -65 44 -140 99 -176 129 -80 67
-125 100 -159 117 -20 10 -42 26 -50 35 -8 9 -32 26 -54 37 -23 11 -55 33 -73
48 -17 16 -46 31 -65 35 -18 4 -52 25 -76 46 -24 21 -56 41 -72 44 -16 4 -41
16 -55 27 -24 19 -77 48 -190 105 -154 77 -216 104 -255 110 -27 4 -59 18 -82
36 -25 20 -58 33 -108 43 -39 7 -95 26 -123 42 -32 18 -81 34 -127 41 -51 8
-89 21 -121 41 -25 17 -48 30 -50 29 -2 0 -10 -3 -18 -6z"/>
</g>
</svg>
